<?xml version="1.0" encoding="UTF-8"?>
<!DOCTYPE svg PUBLIC "-//W3C//DTD SVG 1.1//EN" "http://www.w3.org/Graphics/SVG/1.1/DTD/svg11.dtd">
<svg xmlns="http://www.w3.org/2000/svg" version="1.1" width="63px" height="45px" style="shape-rendering:geometricPrecision; text-rendering:geometricPrecision; image-rendering:optimizeQuality; fill-rule:evenodd; clip-rule:evenodd" xmlns:xlink="http://www.w3.org/1999/xlink">
<g><path style="opacity:0.896" fill="#fefffe" d="M 8.5,4.5 C 23.3277,3.33892 38.3277,3.17226 53.5,4C 46.2839,10.8867 38.7839,17.3867 31,23.5C 23.3454,17.345 15.8454,11.0117 8.5,4.5 Z"/></g>
<g><path style="opacity:0.844" fill="#fefffe" d="M 5.5,6.5 C 11.5607,10.3818 17.2273,14.8818 22.5,20C 17,26.1667 11.5,32.3333 6,38.5C 4.85468,33.3356 4.35468,28.0023 4.5,22.5C 4.52312,17.088 4.85645,11.7547 5.5,6.5 Z"/></g>
<g><path style="opacity:0.874" fill="#fefffe" d="M 54.5,6.5 C 55.8282,11.4558 56.4949,16.7891 56.5,22.5C 56.1667,27.8333 55.8333,33.1667 55.5,38.5C 49.8241,32.823 44.4908,26.823 39.5,20.5C 44.5203,15.8116 49.5203,11.1449 54.5,6.5 Z"/></g>
<g><path style="opacity:0.871" fill="#fefffe" d="M 23.5,22.5 C 26.1004,23.9188 28.6004,25.5854 31,27.5C 32.7401,25.0465 34.9067,23.5465 37.5,23C 43.7919,28.5409 48.9586,34.7076 53,41.5C 45.7431,42.1585 38.4098,42.4918 31,42.5C 23.0677,42.6357 15.2343,42.1357 7.5,41C 13.0428,34.9613 18.3761,28.7947 23.5,22.5 Z"/></g>
</svg>
