<?xml version="1.0" encoding="UTF-8"?>
<!DOCTYPE svg PUBLIC "-//W3C//DTD SVG 1.1//EN" "http://www.w3.org/Graphics/SVG/1.1/DTD/svg11.dtd">
<svg xmlns="http://www.w3.org/2000/svg" version="1.1" width="57px" height="57px" style="shape-rendering:geometricPrecision; text-rendering:geometricPrecision; image-rendering:optimizeQuality; fill-rule:evenodd; clip-rule:evenodd" xmlns:xlink="http://www.w3.org/1999/xlink">
<g><path style="opacity:0.893" fill="#fffcfe" d="M 24.5,2.5 C 44.9847,3.48246 54.1513,14.1491 52,34.5C 49.4018,43.4307 43.7352,49.4307 35,52.5C 33.7099,47.9892 32.8766,43.3226 32.5,38.5C 39.3711,37.7946 43.0378,33.9612 43.5,27C 41.3189,22.5472 39.9856,18.0472 39.5,13.5C 37.3932,14.6368 35.2265,15.6368 33,16.5C 29.3333,15.1667 25.6667,15.1667 22,16.5C 19.7735,15.6368 17.6068,14.6368 15.5,13.5C 15.0144,18.0472 13.6811,22.5472 11.5,27C 11.9771,33.9757 15.6438,37.8091 22.5,38.5C 22.7997,41.244 21.633,42.9106 19,43.5C 15.8712,42.181 13.0378,40.681 10.5,39C 11.9557,40.7448 13.289,42.5781 14.5,44.5C 16.7466,45.3742 19.0799,45.7076 21.5,45.5C 21.8515,48.0728 21.3515,50.4062 20,52.5C 6.26927,46.7125 0.6026,36.3791 3,21.5C 6.31521,10.6784 13.4819,4.34504 24.5,2.5 Z"/></g>
</svg>
