<?xml version="1.0" encoding="UTF-8"?>
<!DOCTYPE svg PUBLIC "-//W3C//DTD SVG 1.1//EN" "http://www.w3.org/Graphics/SVG/1.1/DTD/svg11.dtd">
<svg xmlns="http://www.w3.org/2000/svg" version="1.1" width="52px" height="51px" style="shape-rendering:geometricPrecision; text-rendering:geometricPrecision; image-rendering:optimizeQuality; fill-rule:evenodd; clip-rule:evenodd" xmlns:xlink="http://www.w3.org/1999/xlink">
<g><path style="opacity:0.918" fill="#fffdfe" d="M 6.5,2.5 C 19.1711,2.33345 31.8377,2.50012 44.5,3C 45.3081,3.30762 45.9747,3.80762 46.5,4.5C 47.6475,17.4544 47.8141,30.4544 47,43.5C 46.6924,44.3081 46.1924,44.9747 45.5,45.5C 32.5456,46.6475 19.5456,46.8141 6.5,46C 6,45.5 5.5,45 5,44.5C 4.33333,31.1667 4.33333,17.8333 5,4.5C 5.71719,3.9558 6.21719,3.28913 6.5,2.5 Z M 11.5,10.5 C 15.7244,10.0525 17.391,11.7191 16.5,15.5C 11.1527,17.4861 9.48605,15.8194 11.5,10.5 Z M 11.5,19.5 C 13.1667,19.5 14.8333,19.5 16.5,19.5C 16.5,25.8333 16.5,32.1667 16.5,38.5C 14.8333,38.5 13.1667,38.5 11.5,38.5C 11.5,32.1667 11.5,25.8333 11.5,19.5 Z M 21.5,19.5 C 23.8211,19.2289 25.8211,19.8955 27.5,21.5C 31.0124,19.026 34.679,18.8593 38.5,21C 39.1905,22.0674 39.6905,23.2341 40,24.5C 40.4992,29.1548 40.6658,33.8215 40.5,38.5C 38.5,38.5 36.5,38.5 34.5,38.5C 34.6657,34.1539 34.499,29.8206 34,25.5C 32.112,23.0777 30.112,23.0777 28,25.5C 27.501,29.8206 27.3343,34.1539 27.5,38.5C 25.5,38.5 23.5,38.5 21.5,38.5C 21.5,32.1667 21.5,25.8333 21.5,19.5 Z"/></g>
</svg>
