<?xml version="1.0" encoding="UTF-8"?>
<!DOCTYPE svg PUBLIC "-//W3C//DTD SVG 1.1//EN" "http://www.w3.org/Graphics/SVG/1.1/DTD/svg11.dtd">
<svg xmlns="http://www.w3.org/2000/svg" version="1.1" width="57px" height="54px" style="shape-rendering:geometricPrecision; text-rendering:geometricPrecision; image-rendering:optimizeQuality; fill-rule:evenodd; clip-rule:evenodd" xmlns:xlink="http://www.w3.org/1999/xlink">
<g><path style="opacity:0.897" fill="#fffefe" d="M 12.5,3.5 C 14.0174,3.51056 15.1841,4.17723 16,5.5C 19.1113,9.37121 20.778,13.7045 21,18.5C 19.7638,19.3992 18.9304,20.5659 18.5,22C 21.3461,28.8461 26.1795,33.6795 33,36.5C 34.7106,33.4203 37.2106,32.2536 40.5,33C 43.927,34.796 47.0937,36.9627 50,39.5C 48.4222,43.1141 45.9222,46.2807 42.5,49C 36.224,50.3377 30.5573,49.0043 25.5,45C 16.0421,38.549 9.20875,30.049 5,19.5C 4.33333,16.8333 4.33333,14.1667 5,11.5C 7.70497,8.96376 10.205,6.29709 12.5,3.5 Z"/></g>
</svg>
